# xmcd
#
# Track frame offsets:
#	150
#	16699
#	37084
#	53431
#	71061
#	93528
#	108944
#	132667
#	152357
#	175384
#	197145
#	221451
#	243520
#
# Disc length: 3503 seconds
#
# Revision: 2
# Processed by: cddbd v1.5.2PL0 Copyright (c) Steve Scherf et al.
# Submitted via: EasyCDDAExtractor 10.0.2.1
#
DISCID=b00dad0d
DTITLE=Various Artist - FURACÃO 2000 - SENSIBILIDADE VOL.5
DYEAR=1998
DGENRE=R&B
TTITLE0=RANDY BEOWN - I'D RATHER HURT MY SELF (BY DJ GILMAR SINISTRO
TTITLE1=DREAM - FLOAT ON (BY DJ GILMAR SINISTRO
TTITLE2=JUST RENÉ - LOVIN' YOU (BY DJ GILMAR SINISTRO
TTITLE3=PAUL YOUNG - LOVE ME WON'T LET ME  WAIT (BY DJ GILMAR SINISTRO
TTITLE4=MISCHKE - ROCK WITH YOU (BY DJ GILMAR SINISTRO
TTITLE5=JUST - THE FEELING (BY DJ GILMAR SINISTRO
TTITLE6=KUYA - FOREVER INDEBTED (BY DJ GILMAR SINISTRO
TTITLE7=DENOSH - TONIGHT (BY DJ GILMAR SINISTRO
TTITLE8=GLENN LEWIS - THE THING TO DO (BY DJ GILMAR SINISTRO
TTITLE9=MCAULEYS - I JUST WANNA BE YOUR EVERYTHING (BY DJ GILMAR SINISTRO
TTITLE10=UNIQUE - HOW WAY I DO YOU (BY DJ GILMAR SINISTRO
TTITLE11=WALL OF SOUND - LOVE IS ON YOUR SIDE (BY DJ GILMAR SINISTRO
TTITLE12=JOI GARDWELL - SOUL SURVIVOR (BY DJ GILMAR SINISTRO
EXTD=
EXTT0=
EXTT1=
EXTT2=
EXTT3=
EXTT4=
EXTT5=
EXTT6=
EXTT7=
EXTT8=
EXTT9=
EXTT10=
EXTT11=
EXTT12=
PLAYORDER=
